<svg xmlns="http://www.w3.org/2000/svg" width="48" height="48" viewBox="0 0 48 48"><g fill="#EB7F00"><path d="M23.998 23.736c2.666 0 4.834-2.625 4.834-5.87 0-3.236-.715-5.866-4.834-5.866s-4.832 2.63-4.832 5.867c0 3.244 2.165 5.87 4.832 5.87zM14.874 32.7c-.002-.203-.004-.06 0 0zM33.13 32.85c0-.05 0-.376 0 0z"/><path d="M33.113 32.463c-.088-5.646-.828-7.256-6.472-8.274 0 0-.792 1.015-2.643 1.015-1.85 0-2.644-1.016-2.644-1.016-5.584 1.006-6.365 2.588-6.465 8.092-.012.45-.013.473-.015.42v.592S16.213 36 23.997 36c7.784 0 9.13-2.706 9.13-2.706v-.443c0 .037-.006-.026-.014-.387z"/></g></svg>