<svg xmlns="http://www.w3.org/2000/svg" width="150" height="96" viewBox="0 0 150 96"><g fill="#EB7F00"><path d="M98.582 19.41l15.775-15.773L110.725 0l-19.41 19.41M101.533 29.9l19.545-19.543-3.658-3.66-15.887 15.886"/></g><g fill="#F3FFE2"><path d="M109.768 69.47c-1.443 0-2.5.497-3.168 1.497-.668.996-1.02 2.78-1.057 5.347h-4.012c.108-7.806 2.72-11.712 7.837-11.712h8.93c3.37 0 5.055-3.012 5.055-9.037h4.145c0 6.025 1.686 9.037 5.053 9.037h8.906c5.115 0 7.73 3.906 7.834 11.712h-3.984c-.035-2.566-.387-4.35-1.055-5.347-.67-1-1.726-1.498-3.17-1.498h-8.876c-3.69 0-5.9-2.078-6.633-6.23h-.317c-.732 4.152-2.943 6.23-6.633 6.23h-8.852zM59.356 69.47c-1.443 0-2.5.497-3.167 1.497-.67.996-1.022 2.78-1.058 5.347h-4.01c.107-7.806 2.718-11.712 7.833-11.712h8.93c3.37 0 5.056-3.012 5.056-9.037h4.146c0 6.025 1.684 9.037 5.053 9.037h8.905c5.115 0 7.727 3.906 7.834 11.712h-3.985c-.035-2.566-.387-4.35-1.057-5.347-.668-1-1.725-1.498-3.168-1.498h-8.88c-3.687 0-5.9-2.078-6.63-6.23h-.32c-.732 4.152-2.943 6.23-6.632 6.23h-8.852zM8.946 69.47c-1.443 0-2.5.497-3.168 1.497-.667.996-1.02 2.78-1.056 5.347H.71c.108-7.806 2.72-11.712 7.834-11.712h8.93c3.37 0 5.056-3.012 5.056-9.037h4.145c0 6.025 1.684 9.037 5.053 9.037h8.905c5.116 0 7.727 3.906 7.834 11.712h-3.984c-.036-2.566-.387-4.35-1.056-5.347-.67-1-1.725-1.498-3.17-1.498h-8.876c-3.687 0-5.9-2.078-6.63-6.23h-.32c-.732 4.152-2.944 6.23-6.633 6.23h-8.85zM22.6 52.957v-14.12h104.803v14.12h-3.982v-9.253H26.61v9.253H22.6zM51.123 36.185v-14.12H98.88v14.12h-3.983V26.93H55.133v9.254h-4.01zM101.53 84.127v-5.16c6.704 8.004 14.665 12.006 23.88 12.006 9.29 0 17.248-3.984 23.88-11.953v5.107C142.995 92.043 135.054 96 125.464 96c-9.485 0-17.46-3.957-23.934-11.873zM51.123 84.127v-5.16c6.703 8.004 14.662 12.006 23.88 12.006 9.287 0 17.246-3.984 23.878-11.953v5.107C92.59 92.043 84.647 96 75.056 96c-9.484 0-17.46-3.957-23.932-11.873zM.71 84.127v-5.16c6.703 8.004 14.663 12.006 23.88 12.006 9.287 0 17.246-3.984 23.878-11.953v5.107C42.175 92.043 34.234 96 24.643 96 15.16 96 7.183 92.043.71 84.127z"/></g><g fill="#EB7F00"><circle cx="24.589" cy="78.967" r="2.653"/><circle cx="75" cy="78.967" r="2.654"/><circle cx="125.411" cy="78.967" r="2.653"/></g></svg>